<svg width="6" height="22" viewBox="0 0 6 22" fill="none" xmlns="http://www.w3.org/2000/svg">
<path d="M1.125 17.125C1.66667 16.5833 2.29167 16.3125 3 16.3125C3.70833 16.3125 4.33333 16.5833 4.875 17.125C5.41667 17.6667 5.6875 18.2917 5.6875 19C5.6875 19.7083 5.41667 20.3333 4.875 20.875C4.33333 21.4167 3.70833 21.6875 3 21.6875C2.29167 21.6875 1.66667 21.4167 1.125 20.875C0.583333 20.3333 0.3125 19.7083 0.3125 19C0.3125 18.2917 0.583333 17.6667 1.125 17.125ZM1.125 9.125C1.66667 8.58333 2.29167 8.3125 3 8.3125C3.70833 8.3125 4.33333 8.58333 4.875 9.125C5.41667 9.66667 5.6875 10.2917 5.6875 11C5.6875 11.7083 5.41667 12.3333 4.875 12.875C4.33333 13.4167 3.70833 13.6875 3 13.6875C2.29167 13.6875 1.66667 13.4167 1.125 12.875C0.583333 12.3333 0.3125 11.7083 0.3125 11C0.3125 10.2917 0.583333 9.66667 1.125 9.125ZM4.875 4.875C4.33333 5.41667 3.70833 5.6875 3 5.6875C2.29167 5.6875 1.66667 5.41667 1.125 4.875C0.583333 4.33333 0.3125 3.70833 0.3125 3C0.3125 2.29167 0.583333 1.66667 1.125 1.125C1.66667 0.583333 2.29167 0.3125 3 0.3125C3.70833 0.3125 4.33333 0.583333 4.875 1.125C5.41667 1.66667 5.6875 2.29167 5.6875 3C5.6875 3.70833 5.41667 4.33333 4.875 4.875Z" fill="white"/>
</svg>
