<svg width="214" height="231" viewBox="0 0 214 231" fill="none" xmlns="http://www.w3.org/2000/svg">
<path d="M135.745 130.646L43.2385 154.467C40.1006 155.272 36.7717 154.798 33.9823 153.151C31.1929 151.504 29.1707 148.818 28.3594 145.682L0.383047 37.0411C-0.421225 33.9031 0.052044 30.5743 1.69903 27.7849C3.34601 24.9955 6.03221 22.9733 9.1683 22.1619L95.2302 0L117.258 9.86112L144.53 115.767C145.334 118.905 144.861 122.234 143.214 125.023C141.567 127.812 138.881 129.835 135.745 130.646Z" fill="#F2F2F2"/>
<path d="M10.0456 25.5682C7.81227 26.146 5.89937 27.586 4.72652 29.5724C3.55366 31.5588 3.21664 33.9294 3.78938 36.1639L31.7657 144.805C32.3435 147.038 33.7835 148.951 35.7699 150.124C37.7563 151.297 40.1269 151.634 42.3614 151.061L134.868 127.24C137.101 126.662 139.014 125.222 140.187 123.235C141.36 121.249 141.697 118.879 141.124 116.644L114.274 12.3793L94.916 3.71307L10.0456 25.5682Z" fill="white"/>
<path d="M117.023 10.4216L102.706 14.1083C101.661 14.3774 100.552 14.2203 99.6223 13.6716C98.6929 13.1229 98.0196 12.2275 97.7505 11.1823L95.0276 0.60828C95.0157 0.561987 95.017 0.513271 95.0315 0.467719C95.046 0.422168 95.073 0.381626 95.1095 0.35074C95.146 0.319854 95.1905 0.299876 95.2378 0.293098C95.2851 0.286319 95.3334 0.293013 95.3771 0.312413L117.062 9.94285C117.111 9.96428 117.151 10.0002 117.178 10.0456C117.205 10.0911 117.217 10.1437 117.213 10.1964C117.208 10.249 117.188 10.2989 117.154 10.3393C117.12 10.3797 117.074 10.4084 117.023 10.4216Z" fill="#F2F2F2"/>
<path d="M109.491 103.199L67.3746 114.044C67.1158 114.111 66.8465 114.126 66.5819 114.088C66.3174 114.051 66.0628 113.962 65.8327 113.826C65.6026 113.69 65.4015 113.51 65.241 113.297C65.0804 113.083 64.9634 112.84 64.8968 112.581C64.8302 112.323 64.8152 112.053 64.8526 111.789C64.8901 111.524 64.9793 111.269 65.1151 111.039C65.251 110.809 65.4308 110.608 65.6444 110.448C65.8579 110.287 66.101 110.17 66.3598 110.104L108.477 99.2579C108.735 99.1913 109.005 99.1763 109.269 99.2138C109.534 99.2512 109.788 99.3404 110.018 99.4763C110.249 99.6121 110.45 99.792 110.61 100.006C110.771 100.219 110.888 100.462 110.954 100.721C111.021 100.98 111.036 101.249 110.999 101.514C110.961 101.778 110.872 102.033 110.736 102.263C110.6 102.493 110.42 102.694 110.207 102.855C109.993 103.015 109.75 103.132 109.491 103.199Z" fill="#CCCCCC"/>
<path d="M119.331 107.756L69.0865 120.694C68.5639 120.829 68.0093 120.75 67.5446 120.476C67.0799 120.202 66.7433 119.754 66.6087 119.231C66.4742 118.709 66.5527 118.154 66.8271 117.689C67.1014 117.225 67.5491 116.888 68.0717 116.753L118.316 103.815C118.839 103.681 119.393 103.76 119.857 104.034C120.321 104.309 120.658 104.756 120.792 105.278C120.927 105.801 120.848 106.355 120.574 106.819C120.3 107.284 119.853 107.621 119.331 107.756Z" fill="#CCCCCC"/>
<path d="M50.1846 127.107C54.1563 127.107 57.376 123.887 57.376 119.915C57.376 115.944 54.1563 112.724 50.1846 112.724C46.2129 112.724 42.9932 115.944 42.9932 119.915C42.9932 123.887 46.2129 127.107 50.1846 127.107Z" fill="#E6E6E6"/>
<path d="M105.013 84.3783L49.0774 98.7769C47.4609 99.1911 45.746 98.9471 44.3091 98.0986C42.8722 97.25 41.8306 95.8661 41.4128 94.2505L29.6908 48.7134C29.2767 47.0969 29.5206 45.382 30.3692 43.9452C31.2178 42.5083 32.6017 41.4666 34.2173 41.0488L90.1526 26.6502C91.7691 26.236 93.4839 26.48 94.9208 27.3285C96.3577 28.1771 97.3994 29.561 97.8172 31.1766L109.539 76.7137C109.953 78.3302 109.709 80.045 108.861 81.4819C108.012 82.9188 106.628 83.9605 105.013 84.3783Z" fill="white"/>
<path d="M105.013 84.3783L49.0774 98.7769C47.4609 99.1911 45.746 98.9471 44.3091 98.0986C42.8722 97.25 41.8306 95.8661 41.4128 94.2505L29.6908 48.7134C29.2767 47.0969 29.5206 45.382 30.3692 43.9452C31.2178 42.5083 32.6017 41.4666 34.2173 41.0488L90.1526 26.6502C91.7691 26.236 93.4839 26.48 94.9208 27.3285C96.3577 28.1771 97.3994 29.561 97.8172 31.1766L109.539 76.7137C109.953 78.3302 109.709 80.045 108.861 81.4819C108.012 82.9188 106.628 83.9605 105.013 84.3783ZM34.4019 41.7659C32.9764 42.1346 31.7553 43.0537 31.0065 44.3215C30.2578 45.5894 30.0425 47.1025 30.408 48.5288L42.1299 94.0659C42.4986 95.4914 43.4177 96.7125 44.6855 97.4612C45.9534 98.21 47.4665 98.4252 48.8928 98.0598L104.828 83.6612C106.254 83.2925 107.475 82.3734 108.223 81.1056C108.972 79.8377 109.187 78.3246 108.822 76.8983L97.1 31.3612C96.7314 29.9357 95.8123 28.7146 94.5444 27.9659C93.2766 27.2171 91.7635 27.0019 90.3372 27.3673L34.4019 41.7659Z" fill="#E6E6E6"/>
<path d="M87.3149 41.9616L59.0851 49.2284C58.8383 49.2973 58.5745 49.2699 58.3471 49.1518C58.1197 49.0337 57.9456 48.8337 57.8601 48.5921C57.8203 48.466 57.8066 48.333 57.8199 48.2013C57.8331 48.0697 57.8731 47.9421 57.9373 47.8264C58.0015 47.7108 58.0886 47.6094 58.1932 47.5284C58.2979 47.4475 58.418 47.3888 58.5461 47.3558L87.2823 39.9586C88.4431 40.5468 88.1377 41.7498 87.3145 41.9617L87.3149 41.9616Z" fill="#F2F2F2"/>
<path d="M88.5897 46.9133L60.3599 54.1801C60.1131 54.249 59.8494 54.2217 59.622 54.1035C59.3946 53.9854 59.2205 53.7854 59.135 53.5438C59.0952 53.4177 59.0815 53.2847 59.0948 53.1531C59.108 53.0214 59.148 52.8939 59.2122 52.7782C59.2764 52.6625 59.3634 52.5611 59.4681 52.4801C59.5728 52.3992 59.6929 52.3405 59.821 52.3075L88.5572 44.9103C89.718 45.4985 89.4126 46.7015 88.5894 46.9134L88.5897 46.9133Z" fill="#F2F2F2"/>
<path d="M54.9829 58.5703L46.3674 60.7881C46.086 60.8602 45.7876 60.8178 45.5374 60.67C45.2873 60.5223 45.106 60.2814 45.0333 60.0002L42.4162 49.8333C42.3441 49.5519 42.3865 49.2534 42.5342 49.0033C42.6819 48.7532 42.9228 48.5719 43.2041 48.4992L51.8195 46.2814C52.1009 46.2094 52.3993 46.2519 52.6494 46.3996C52.8995 46.5473 53.0808 46.7881 53.1536 47.0693L55.7708 57.2362C55.8429 57.5176 55.8004 57.8161 55.6527 58.0662C55.505 58.3163 55.2641 58.4976 54.9829 58.5703V58.5703Z" fill="#E6E6E6"/>
<path d="M91.1176 57.073L48.0338 68.1635C47.787 68.2324 47.5232 68.205 47.2958 68.0869C47.0684 67.9688 46.8944 67.7688 46.8088 67.5272C46.769 67.4011 46.7553 67.2681 46.7686 67.1364C46.7818 67.0048 46.8218 66.8772 46.886 66.7615C46.9502 66.6459 47.0373 66.5445 47.142 66.4635C47.2466 66.3826 47.3667 66.3239 47.4948 66.2909L91.0854 55.0699C92.2462 55.6581 91.9408 56.8611 91.1177 57.073L91.1176 57.073Z" fill="#F2F2F2"/>
<path d="M92.3926 62.0262L49.3087 73.1167C49.0619 73.1856 48.7981 73.1582 48.5707 73.0401C48.3434 72.922 48.1693 72.7219 48.0837 72.4804C48.0439 72.3542 48.0302 72.2213 48.0435 72.0896C48.0567 71.958 48.0967 71.8304 48.1609 71.7147C48.2251 71.599 48.3122 71.4976 48.4169 71.4167C48.5215 71.3358 48.6416 71.277 48.7697 71.244L92.3604 60.0231C93.5212 60.6113 93.2157 61.8143 92.3926 62.0262V62.0262Z" fill="#F2F2F2"/>
<path d="M93.6665 66.9761L50.5826 78.0666C50.3358 78.1355 50.072 78.1081 49.8447 77.99C49.6173 77.8719 49.4432 77.6718 49.3577 77.4303C49.3178 77.3041 49.3041 77.1712 49.3174 77.0395C49.3307 76.9079 49.3706 76.7803 49.4348 76.6646C49.499 76.5489 49.5861 76.4475 49.6908 76.3666C49.7955 76.2857 49.9155 76.2269 50.0437 76.1939L93.6343 64.973C94.7951 65.5612 94.4896 66.7642 93.6665 66.9761Z" fill="#F2F2F2"/>
<path d="M94.9419 71.9289L51.858 83.0194C51.6112 83.0883 51.3475 83.0609 51.1201 82.9428C50.8927 82.8247 50.7186 82.6246 50.633 82.3831C50.5932 82.2569 50.5795 82.124 50.5928 81.9923C50.6061 81.8607 50.646 81.7331 50.7102 81.6174C50.7744 81.5017 50.8615 81.4003 50.9662 81.3194C51.0709 81.2385 51.1909 81.1797 51.3191 81.1468L94.9097 69.9258C96.0705 70.514 95.765 71.717 94.9419 71.9289L94.9419 71.9289Z" fill="#F2F2F2"/>
<path d="M96.2158 76.8792L53.1319 87.9697C52.8851 88.0386 52.6214 88.0112 52.394 87.8931C52.1666 87.7749 51.9925 87.5749 51.907 87.3334C51.8671 87.2072 51.8535 87.0742 51.8667 86.9426C51.88 86.8109 51.9199 86.6834 51.9841 86.5677C52.0483 86.452 52.1354 86.3506 52.2401 86.2697C52.3448 86.1887 52.4648 86.13 52.593 86.097L96.1836 74.8761C97.3444 75.4643 97.0389 76.6673 96.2158 76.8792Z" fill="#F2F2F2"/>
<path d="M50.7153 122.436C50.5586 122.477 50.3931 122.465 50.2435 122.404L50.2343 122.4L48.2752 121.569C48.1843 121.531 48.1018 121.475 48.0326 121.404C47.9633 121.334 47.9086 121.251 47.8716 121.159C47.8346 121.067 47.816 120.97 47.8169 120.871C47.8178 120.772 47.8381 120.674 47.8768 120.584C47.9154 120.493 47.9716 120.41 48.0421 120.341C48.1126 120.272 48.196 120.218 48.2876 120.181C48.3792 120.144 48.4771 120.125 48.5759 120.126C48.6746 120.128 48.7721 120.148 48.8629 120.187L50.1324 120.727L51.7959 116.813C51.8345 116.723 51.8905 116.641 51.9609 116.571C52.0313 116.502 52.1145 116.448 52.206 116.411C52.2974 116.374 52.3952 116.356 52.4938 116.357C52.5924 116.357 52.6898 116.378 52.7805 116.416L52.7808 116.416L52.7708 116.442L52.7812 116.416C52.9643 116.494 53.109 116.642 53.1834 116.827C53.2578 117.011 53.256 117.218 53.1782 117.401L51.2211 122.002C51.1758 122.108 51.1066 122.203 51.0189 122.278C50.9312 122.353 50.8275 122.407 50.7157 122.435L50.7153 122.436Z" fill="white"/>
<path d="M171.226 172.046H75.7021C72.4627 172.042 69.3571 170.754 67.0666 168.463C64.776 166.173 63.4875 163.067 63.4839 159.828V47.6426C63.4875 44.4033 64.776 41.2977 67.0666 39.0071C69.3571 36.7165 72.4627 35.4281 75.7021 35.4244H164.572L183.444 50.4672V159.828C183.441 163.067 182.152 166.173 179.862 168.463C177.571 170.754 174.466 172.042 171.226 172.046Z" fill="#E6E6E6"/>
<path d="M75.7028 38.9418C73.396 38.9444 71.1844 39.862 69.5532 41.4931C67.9221 43.1243 67.0046 45.3359 67.002 47.6427V159.828C67.0046 162.135 67.9221 164.346 69.5532 165.978C71.1844 167.609 73.396 168.526 75.7028 168.529H171.227C173.534 168.526 175.745 167.609 177.377 165.978C179.008 164.346 179.925 162.135 179.928 159.828V52.1618L163.342 38.9418H75.7028Z" fill="white"/>
<path d="M152.647 71.5622H109.156C108.617 71.5622 108.099 71.3479 107.718 70.9663C107.336 70.5847 107.122 70.0672 107.122 69.5276C107.122 68.9879 107.336 68.4704 107.718 68.0889C108.099 67.7073 108.617 67.4929 109.156 67.4929H152.647C153.187 67.4929 153.704 67.7073 154.086 68.0889C154.467 68.4704 154.682 68.9879 154.682 69.5276C154.682 70.0672 154.467 70.5847 154.086 70.9663C153.704 71.3479 153.187 71.5622 152.647 71.5622Z" fill="#ECAB0F"/>
<path d="M161.04 78.4293H109.156C108.617 78.4286 108.1 78.2139 107.719 77.8324C107.338 77.4509 107.124 76.9338 107.124 76.3946C107.124 75.8555 107.338 75.3384 107.719 74.9569C108.1 74.5754 108.617 74.3607 109.156 74.36H161.04C161.307 74.3596 161.572 74.412 161.819 74.5141C162.066 74.6162 162.291 74.766 162.48 74.955C162.669 75.1439 162.82 75.3683 162.922 75.6154C163.024 75.8624 163.077 76.1272 163.077 76.3946C163.077 76.6621 163.024 76.9269 162.922 77.1739C162.82 77.4209 162.669 77.6454 162.48 77.8343C162.291 78.0233 162.066 78.1731 161.819 78.2752C161.572 78.3773 161.307 78.4297 161.04 78.4293Z" fill="#ECAB0F"/>
<path d="M152.647 98.2661H109.158C108.618 98.2661 108.101 98.4804 107.719 98.8619C107.338 99.2435 107.124 99.761 107.124 100.301C107.124 100.84 107.338 101.358 107.719 101.739C108.101 102.121 108.618 102.335 109.158 102.335H152.647C153.187 102.335 153.705 102.121 154.086 101.739C154.468 101.358 154.682 100.84 154.682 100.301C154.682 99.761 154.468 99.2435 154.086 98.8619C153.705 98.4804 153.187 98.2661 152.647 98.2661Z" fill="#CCCCCC"/>
<path d="M161.041 105.134H109.158C108.618 105.134 108.101 105.349 107.719 105.73C107.338 106.112 107.124 106.629 107.124 107.169C107.124 107.708 107.338 108.226 107.719 108.607C108.101 108.989 108.618 109.203 109.158 109.203H161.041C161.581 109.203 162.098 108.989 162.48 108.607C162.861 108.226 163.075 107.708 163.075 107.169C163.075 106.629 162.861 106.112 162.48 105.73C162.098 105.349 161.581 105.134 161.041 105.134Z" fill="#CCCCCC"/>
<path d="M152.647 133.111H109.156C108.617 133.111 108.099 132.896 107.718 132.515C107.336 132.133 107.122 131.616 107.122 131.076C107.122 130.536 107.336 130.019 107.718 129.637C108.099 129.256 108.617 129.041 109.156 129.041H152.647C153.187 129.041 153.704 129.256 154.086 129.637C154.467 130.019 154.682 130.536 154.682 131.076C154.682 131.616 154.467 132.133 154.086 132.515C153.704 132.896 153.187 133.111 152.647 133.111Z" fill="#CCCCCC"/>
<path d="M161.04 139.978H109.156C108.617 139.977 108.1 139.762 107.719 139.381C107.338 138.999 107.124 138.482 107.124 137.943C107.124 137.404 107.338 136.887 107.719 136.505C108.1 136.124 108.617 135.909 109.156 135.908H161.04C161.307 135.908 161.572 135.96 161.819 136.062C162.066 136.165 162.291 136.314 162.48 136.503C162.669 136.692 162.82 136.917 162.922 137.164C163.024 137.411 163.077 137.676 163.077 137.943C163.077 138.21 163.024 138.475 162.922 138.722C162.82 138.969 162.669 139.194 162.48 139.383C162.291 139.572 162.066 139.721 161.819 139.824C161.572 139.926 161.307 139.978 161.04 139.978Z" fill="#CCCCCC"/>
<path d="M91.0454 80.1525C95.0171 80.1525 98.2368 76.9328 98.2368 72.9611C98.2368 68.9894 95.0171 65.7697 91.0454 65.7697C87.0737 65.7697 83.854 68.9894 83.854 72.9611C83.854 76.9328 87.0737 80.1525 91.0454 80.1525Z" fill="#ECAB0F"/>
<path d="M90.3333 75.7044C90.1715 75.7047 90.014 75.6524 89.8846 75.5553L89.8766 75.5493L88.1865 74.2565C88.108 74.1965 88.0421 74.1217 87.9925 74.0363C87.943 73.9508 87.9107 73.8565 87.8977 73.7586C87.8846 73.6607 87.891 73.5612 87.9165 73.4657C87.942 73.3703 87.986 73.2808 88.0461 73.2025C88.1062 73.1241 88.1812 73.0583 88.2667 73.0089C88.3523 72.9596 88.4467 72.9275 88.5446 72.9147C88.6426 72.9019 88.7421 72.9085 88.8374 72.9342C88.9328 72.9599 89.0222 73.0041 89.1004 73.0644L90.1951 73.9038L92.7819 70.529C92.8419 70.4508 92.9167 70.3851 93.0021 70.3358C93.0874 70.2864 93.1817 70.2544 93.2794 70.2415C93.3772 70.2286 93.4765 70.2351 93.5717 70.2605C93.667 70.286 93.7563 70.33 93.8345 70.39L93.8347 70.3902L93.8187 70.4124L93.8352 70.3902C93.993 70.5115 94.0963 70.6904 94.1223 70.8878C94.1483 71.0852 94.095 71.2848 93.974 71.4429L90.9314 75.4107C90.861 75.5021 90.7705 75.5761 90.6669 75.6269C90.5633 75.6776 90.4494 75.7039 90.334 75.7036L90.3333 75.7044Z" fill="white"/>
<path d="M98.9757 103.735C98.9761 104.679 98.7903 105.614 98.4292 106.487C98.068 107.36 97.5385 108.153 96.8708 108.821C96.2031 109.489 95.4103 110.019 94.5378 110.381C93.6652 110.742 92.73 110.928 91.7855 110.929C91.7237 110.93 91.6619 110.927 91.6004 110.921C90.1864 110.885 88.8144 110.432 87.6563 109.62C86.4982 108.808 85.6052 107.673 85.0893 106.356C84.5733 105.039 84.4572 103.599 84.7555 102.216C85.0538 100.833 85.7532 99.5694 86.7663 98.5823C87.7793 97.5951 89.061 96.9287 90.451 96.6663C91.8409 96.404 93.2774 96.5574 94.5805 97.1073C95.8837 97.6573 96.9958 98.5793 97.7776 99.7581C98.5594 100.937 98.9761 102.32 98.9757 103.735Z" fill="#CCCCCC"/>
<path d="M91.0454 141.701C95.0171 141.701 98.2368 138.481 98.2368 134.51C98.2368 130.538 95.0171 127.318 91.0454 127.318C87.0737 127.318 83.854 130.538 83.854 134.51C83.854 138.481 87.0737 141.701 91.0454 141.701Z" fill="#CCCCCC"/>
<path d="M183.078 50.9514H168.294C167.215 50.9514 166.18 50.5227 165.416 49.7595C164.653 48.9964 164.225 47.9613 164.225 46.8821V35.9631C164.225 35.9153 164.238 35.8684 164.263 35.8279C164.289 35.7874 164.325 35.7549 164.368 35.7341C164.411 35.7133 164.459 35.705 164.507 35.7103C164.554 35.7155 164.599 35.734 164.637 35.7637L183.236 50.4977C183.277 50.5305 183.307 50.5753 183.322 50.626C183.337 50.6768 183.335 50.7308 183.318 50.7807C183.3 50.8305 183.268 50.8738 183.225 50.9044C183.182 50.935 183.13 50.9514 183.078 50.9514Z" fill="#CCCCCC"/>
<path d="M98.9759 103.735C98.9763 104.679 98.7906 105.614 98.4294 106.487C98.0682 107.36 97.5387 108.153 96.871 108.821C96.2033 109.489 95.4105 110.019 94.538 110.381C93.6655 110.742 92.7302 110.928 91.7857 110.928C91.7239 110.93 91.6621 110.927 91.6006 110.921C90.6715 108.604 90.3134 106.097 90.5563 103.612C90.7992 101.128 91.6362 98.7377 92.9964 96.6443C94.6693 96.931 96.1869 97.7999 97.2811 99.0974C98.3753 100.395 98.9756 102.037 98.9759 103.735Z" fill="#ECAB0F"/>
<path d="M107.122 100.302C107.123 99.7626 107.337 99.2452 107.719 98.8636C108.101 98.4819 108.618 98.267 109.158 98.2661H119.995C120.628 99.5535 121.078 100.923 121.332 102.335H109.158C108.619 102.335 108.101 102.121 107.719 101.74C107.338 101.359 107.123 100.842 107.122 100.302Z" fill="#ECAB0F"/>
<path d="M121.584 105.134C121.584 106.508 121.403 107.877 121.043 109.203H109.158C108.618 109.203 108.101 108.989 107.719 108.607C107.338 108.226 107.124 107.708 107.124 107.169C107.124 106.629 107.338 106.112 107.719 105.73C108.101 105.349 108.618 105.134 109.158 105.134H121.584Z" fill="#ECAB0F"/>
<path d="M148.397 130.229C148.09 130.732 147.596 131.092 147.024 131.231C146.451 131.37 145.847 131.275 145.344 130.968L119.425 115.159C119.175 115.007 118.959 114.807 118.787 114.572C118.615 114.336 118.491 114.069 118.422 113.785C118.354 113.502 118.341 113.207 118.387 112.919C118.432 112.631 118.533 112.354 118.685 112.105C118.837 111.856 119.036 111.64 119.272 111.468C119.508 111.296 119.775 111.172 120.058 111.103C120.342 111.034 120.636 111.022 120.924 111.067C121.213 111.112 121.489 111.214 121.738 111.366L147.657 127.175C148.16 127.482 148.521 127.976 148.66 128.549C148.798 129.121 148.704 129.726 148.397 130.229Z" fill="#3F3D56"/>
<path d="M122.478 114.419C120.648 117.42 117.969 119.81 114.78 121.289C111.591 122.767 108.035 123.266 104.562 122.723C101.089 122.181 97.8556 120.62 95.2695 118.24C92.6835 115.859 90.8614 112.765 90.0338 109.349C89.2062 105.933 89.4102 102.348 90.62 99.0478C91.8297 95.7475 93.991 92.8802 96.8304 90.8083C99.6697 88.7364 103.06 87.553 106.572 87.4077C110.084 87.2624 113.56 88.1619 116.561 89.9922C120.58 92.4504 123.461 96.4026 124.57 100.982C125.68 105.561 124.927 110.394 122.478 114.419ZM95.9269 98.2236C94.5542 100.474 93.8796 103.081 93.9886 105.715C94.0975 108.349 94.9851 110.892 96.539 113.021C98.0929 115.151 100.243 116.772 102.719 117.679C105.194 118.586 107.882 118.739 110.444 118.119C113.007 117.498 115.327 116.131 117.113 114.192C118.898 112.252 120.068 109.827 120.475 107.222C120.882 104.618 120.508 101.951 119.399 99.5592C118.291 97.1674 116.498 95.1581 114.247 93.7853C111.228 91.9485 107.604 91.3842 104.169 92.2163C100.735 93.0484 97.7705 95.2088 95.9269 98.2236Z" fill="#3F3D56"/>
<path d="M179.419 108.014C184.442 108.014 188.513 103.942 188.513 98.9202C188.513 93.8979 184.442 89.8265 179.419 89.8265C174.397 89.8265 170.326 93.8979 170.326 98.9202C170.326 103.942 174.397 108.014 179.419 108.014Z" fill="#A0616A"/>
<path d="M178.831 149.9C178.656 149.354 178.598 148.777 178.661 148.206C178.724 147.636 178.908 147.085 179.198 146.591C179.489 146.096 179.882 145.668 180.349 145.336C180.817 145.003 181.35 144.773 181.912 144.661C182.091 144.626 182.271 144.604 182.453 144.594L192.032 129.22L183.282 120.902C182.948 120.584 182.679 120.203 182.493 119.781C182.307 119.359 182.206 118.905 182.196 118.443C182.187 117.982 182.269 117.524 182.437 117.094C182.606 116.665 182.858 116.273 183.179 115.942C183.5 115.61 183.883 115.346 184.307 115.163C184.73 114.981 185.186 114.884 185.647 114.879C186.109 114.874 186.566 114.96 186.994 115.132C187.422 115.305 187.811 115.56 188.14 115.884L200.221 127.796L200.245 127.826C200.619 128.395 200.799 129.069 200.759 129.748C200.72 130.427 200.462 131.076 200.025 131.597L186.603 147.471C186.643 147.598 186.677 147.727 186.703 147.858C186.816 148.421 186.808 149.001 186.68 149.56C186.552 150.12 186.308 150.646 185.963 151.105C185.618 151.563 185.179 151.944 184.677 152.221C184.174 152.498 183.619 152.666 183.047 152.714C182.932 152.724 182.817 152.729 182.702 152.729C181.841 152.726 181.003 152.45 180.308 151.942C179.613 151.434 179.096 150.72 178.831 149.9Z" fill="#A0616A"/>
<path d="M164.443 225.482L159.903 225.481L157.744 207.973L164.443 207.973L164.443 225.482Z" fill="#A0616A"/>
<path d="M165.599 229.882L150.963 229.881V229.696C150.963 228.948 151.111 228.207 151.397 227.516C151.683 226.825 152.103 226.197 152.632 225.668C153.161 225.139 153.789 224.719 154.48 224.433C155.171 224.147 155.912 223.999 156.66 223.999H156.661L165.6 224L165.599 229.882Z" fill="#2F2E41"/>
<path d="M209.559 219.206L205.659 221.528L194.846 207.59L200.602 204.162L209.559 219.206Z" fill="#A0616A"/>
<path d="M212.805 222.394L200.229 229.882L200.134 229.723C199.751 229.08 199.499 228.368 199.391 227.628C199.284 226.887 199.323 226.133 199.507 225.408C199.691 224.683 200.016 224.001 200.463 223.401C200.91 222.802 201.472 222.296 202.114 221.913L202.115 221.913L209.795 217.34L212.805 222.394Z" fill="#2F2E41"/>
<path d="M157.171 217.771C154.13 181.966 152.321 148.703 163.437 135.134L163.523 135.029L182.23 142.512L182.26 142.579C182.324 142.716 188.545 156.401 187.094 165.606L191.708 186.832L206.753 212.024C206.875 212.227 206.951 212.453 206.978 212.688C207.005 212.922 206.982 213.16 206.91 213.385C206.838 213.61 206.72 213.817 206.562 213.993C206.404 214.169 206.21 214.309 205.994 214.404L199.456 217.28C199.087 217.441 198.672 217.463 198.288 217.343C197.904 217.223 197.576 216.969 197.364 216.627L180.998 189.939L171.754 169.47C171.703 169.358 171.618 169.267 171.511 169.209C171.403 169.151 171.28 169.131 171.159 169.15C171.039 169.169 170.928 169.228 170.844 169.316C170.761 169.405 170.708 169.518 170.695 169.64L165.571 217.808C165.528 218.217 165.335 218.596 165.029 218.871C164.723 219.146 164.326 219.298 163.914 219.298H158.831C158.414 219.295 158.013 219.138 157.706 218.855C157.399 218.573 157.208 218.187 157.171 217.771Z" fill="#2F2E41"/>
<path d="M163.5 135.418L163.411 135.375L163.397 135.277C162.698 130.386 163.525 124.952 165.855 119.125C167.004 116.273 169.139 113.929 171.871 112.519C174.603 111.11 177.75 110.729 180.74 111.445C182.462 111.869 184.077 112.647 185.484 113.728C186.89 114.809 188.056 116.171 188.908 117.726C189.749 119.265 190.262 120.963 190.413 122.711C190.565 124.459 190.351 126.219 189.787 127.88C186.849 136.47 183.038 144.507 183 144.587L182.921 144.755L163.5 135.418Z" fill="#ECAB0F"/>
<path d="M143.089 123.236C143.54 122.88 144.06 122.623 144.617 122.483C145.173 122.343 145.753 122.321 146.318 122.421C146.884 122.52 147.422 122.737 147.897 123.059C148.372 123.381 148.774 123.799 149.076 124.287C149.171 124.442 149.255 124.603 149.328 124.77L167.083 128.358L171.81 117.249C171.991 116.825 172.254 116.441 172.584 116.118C172.914 115.796 173.304 115.542 173.733 115.372C174.162 115.201 174.62 115.117 175.081 115.125C175.542 115.133 175.997 115.232 176.42 115.416C176.843 115.6 177.225 115.867 177.544 116.2C177.864 116.533 178.114 116.926 178.28 117.356C178.447 117.786 178.527 118.245 178.515 118.706C178.503 119.167 178.4 119.621 178.212 120.043L171.284 135.53L171.265 135.563C170.863 136.112 170.295 136.517 169.645 136.718C168.995 136.919 168.297 136.905 167.656 136.678L148.087 129.665C147.982 129.747 147.873 129.823 147.759 129.894C147.272 130.196 146.725 130.392 146.157 130.468C145.588 130.545 145.009 130.5 144.459 130.337C143.908 130.175 143.399 129.897 142.963 129.524C142.527 129.15 142.175 128.689 141.93 128.17C141.88 128.065 141.835 127.959 141.795 127.852C141.497 127.044 141.462 126.163 141.694 125.334C141.927 124.505 142.415 123.771 143.089 123.236Z" fill="#A0616A"/>
<path d="M212.27 108.659C211.395 107.107 210.118 105.685 208.431 105.112C206.252 104.371 203.893 105.16 201.653 105.686C199.927 106.092 198.124 106.34 196.384 105.998C194.645 105.656 192.967 104.643 192.175 103.057C191.011 100.723 191.992 97.9396 191.921 95.3324C191.884 93.9131 191.526 92.5205 190.873 91.2598C190.221 89.999 189.29 88.9029 188.152 88.054C187.014 87.2052 185.698 86.6257 184.303 86.3594C182.909 86.0931 181.472 86.1468 180.101 86.5165C177.956 85.8975 176.014 85.8402 174.687 87.4892C173.018 87.4892 171.417 88.1524 170.237 89.3328C169.056 90.5132 168.393 92.1141 168.393 93.7835H174.412C174.126 95.3181 174.452 96.9035 175.32 98.2009C176.383 99.7618 178.23 100.891 178.586 102.745C178.931 104.542 177.709 106.247 176.428 107.554C175.146 108.86 173.66 110.154 173.26 111.94C173.015 113.295 173.293 114.693 174.039 115.851C174.783 116.995 175.706 118.012 176.773 118.864C181.581 122.982 187.295 125.906 193.448 127.394C197.782 128.437 202.522 128.708 206.545 126.789C208.154 126.021 209.588 124.93 210.758 123.585C211.928 122.24 212.809 120.668 213.346 118.968C213.883 117.267 214.065 115.475 213.88 113.701C213.694 111.928 213.147 110.212 212.27 108.659Z" fill="#2F2E41"/>
<path d="M213.63 230.267H143.283C143.185 230.267 143.09 230.228 143.021 230.159C142.952 230.089 142.913 229.995 142.913 229.897C142.913 229.799 142.952 229.704 143.021 229.635C143.09 229.566 143.185 229.527 143.283 229.527H213.63C213.728 229.527 213.822 229.566 213.892 229.635C213.961 229.704 214 229.799 214 229.897C214 229.995 213.961 230.089 213.892 230.159C213.822 230.228 213.728 230.267 213.63 230.267Z" fill="#CCCCCC"/>
</svg>
